<svg xmlns="http://www.w3.org/2000/svg" xmlns:xlink="http://www.w3.org/1999/xlink" width="1682" height="1765" viewBox="0 0 1682 1765">
  <defs>
    <clipPath id="clip-Wheel_0f_Strenght">
      <rect width="1682" height="1765"/>
    </clipPath>
  </defs>
  <g id="Wheel_0f_Strenght" data-name="Wheel 0f Strenght" clip-path="url(#clip-Wheel_0f_Strenght)">
    <rect width="1682" height="1765" fill="#fff"/>
    <path id="Path_3" data-name="Path 3" d="M81.937,343.914a199.251,199.251,0,0,1,24.346,5.1,309.084,309.084,0,0,1,58.38,22.1,291.021,291.021,0,0,1,70.484,49.059,278.188,278.188,0,0,1,61.222,85.714c.176,4.841,7.8,2.915,19.132-2.69s26.319-14.865,41.279-24.72c14.938-9.841,29.833-20.271,40.985-28.234s18.554-13.454,18.554-13.454l131.723-95.075-14.708-44.605-54.076.528-41.205-46,15.922-64.9L368.789,116.4l-53.577,24.275-57.819-24.505L244.984,60.157,188.959,47.643Z" transform="translate(919.96 110.257)" fill="#ff2600"/>
    <path id="Path_1" data-name="Path 1" d="M509.333,557.333" transform="translate(151.451 -138.403)" fill="none" stroke="#707070" stroke-width="1"/>
    <g id="cancer" transform="translate(598.265 60.344)">
      <path id="Path_2" data-name="Path 2" d="M104.585,387.612S227.168,290.461,374.818,368.5c13.251,16.159,49.33-132.2,49.33-132.2L479.862,66.522,438.028,38.513l-44.3,38.513-63.981-10.5L300.222,0H185.793L158.724,57.769,97.2,77.025,51.677,38.513,0,66.522Z" transform="translate(13.527 0) rotate(2)" fill="#0096ff"/>
      <text id="Cancer_Treatments" data-name="Cancer 
Treatments" transform="translate(246.735 215.656)" fill="#fff" font-size="49" font-family="Poppins-Bold, Poppins" font-weight="700"><tspan x="-97.412" y="0">Cancer </tspan><tspan x="-147.809" y="61">Treatments</tspan></text>
      <g id="_x31_3_x2C__heart_x2C__give_x2C__hand_x2C__favorite_x2C__love" transform="translate(209.083 78.231)">
        <g id="XMLID_15808_" transform="translate(0 0)">
          <path id="XMLID_15809_" d="M197.88,165.715c-5.6,0-8.888,2.1-11.722,7.487a.939.939,0,0,1-1.662,0c-2.778-5.28-4.868-7.487-10.626-7.487a11.669,11.669,0,0,0-2.667.309c-1.145.513-2.263.968-3.31,1.352a10.4,10.4,0,0,0-5.009,7.578,10.069,10.069,0,0,0-.079,1.231,14.525,14.525,0,0,0,1.258,5.936,25.368,25.368,0,0,0,5.3,7.383c2.409,2.484,5.331,4.968,8.425,7.6l.038.033c2.612,2.22,5.306,4.51,8.045,7.076,2.745-2.571,5.445-4.865,8.062-7.089l.024-.02c3.1-2.632,6.023-5.117,8.431-7.6a25.375,25.375,0,0,0,5.309-7.383,14.509,14.509,0,0,0,1.259-5.936,10.066,10.066,0,0,0-.079-1.231A10.871,10.871,0,0,0,197.88,165.715Z" transform="translate(-143.633 -140.717)" fill="#fff"/>
          <path id="XMLID_15810_" d="M185.439,339.778c-4.321.518-15.838,5.678-19.537,10.689a4.334,4.334,0,0,0-1.08,3.261c.021.122.047.237.076.347a1.484,1.484,0,0,0,.817.861c1.314.564,4.551.12,12.5-5.2.2-.134.371-.248.507-.338a.939.939,0,1,1,1.03,1.57c-.132.087-.3.2-.493.328-4.1,2.745-9.026,5.7-12.5,5.7a4.512,4.512,0,0,1-1.79-.334c-.071-.031-.144-.066-.218-.1a.93.93,0,0,1-.456-.06,38.925,38.925,0,0,0-12.857-2.512,15.58,15.58,0,0,0-2.807.225,6.831,6.831,0,0,0-4.087,2.494,2.1,2.1,0,0,0-.315,1.733c.281,1.065,3.08,3,10.04,4.925a67.731,67.731,0,0,0,15.9,2.531,12.079,12.079,0,0,0,2.774-.251,21.277,21.277,0,0,0,8.331-4.4c2.9-2.218,5.89-4.507,12.1-4.76V339.549c-.31-.009-.711-.015-1.23-.015C189.7,339.534,186.295,339.671,185.439,339.778Z" transform="translate(-128.75 -279.513)" fill="#fff"/>
          <path id="XMLID_15811_" d="M135.69,66.645a13.241,13.241,0,0,1,3.648-1.489c4.566-2.078,9.519-5.106,11.716-8.081a4.332,4.332,0,0,0,1.08-3.261c-.021-.122-.047-.237-.076-.347a1.483,1.483,0,0,0-.817-.861c-1.314-.564-4.55-.12-12.5,5.2-.2.134-.372.249-.508.338a.939.939,0,1,1-1.03-1.57c.132-.087.3-.2.493-.329,4.875-3.261,10.9-6.818,14.289-5.366.071.031.145.066.219.1a.937.937,0,0,1,.455.06,38.922,38.922,0,0,0,12.857,2.512,15.573,15.573,0,0,0,2.807-.225,6.831,6.831,0,0,0,4.087-2.494,2.1,2.1,0,0,0,.315-1.733c-.281-1.065-3.079-3-10.04-4.925a67.741,67.741,0,0,0-15.9-2.531A12.083,12.083,0,0,0,144,41.9a21.274,21.274,0,0,0-8.331,4.4c-2.9,2.218-5.89,4.507-12.1,4.761V67.992c.31.009.711.015,1.229.015,2.449,0,5.858-.138,6.714-.244A20.816,20.816,0,0,0,135.69,66.645Z" transform="translate(-112.307 -41.649)" fill="#fff"/>
          <path id="XMLID_15812_" d="M67.657,92.142h9.389V69.608H67.657Zm4.031-18.5a.941.941,0,1,1-.274.663A.94.94,0,0,1,71.688,73.64Z" transform="translate(-67.657 -63.974)" fill="#fff"/>
          <path id="XMLID_15815_" d="M397.745,330.557v22.534h9.389V330.557Zm5.359,18.5a.944.944,0,1,1,.274-.665A.946.946,0,0,1,403.1,349.061Z" transform="translate(-331.235 -272.344)" fill="#fff"/>
        </g>
      </g>
    </g>
    <path id="Path_4" data-name="Path 4" d="M108.443,355.533s133.174-76.95,286.27-5.368c13.74,14.822,54.958-129.691,54.958-129.691L497.563,61.017,454.185,35.325,408.257,70.651l-66.342-9.634L311.3,0H192.646L164.578,52.988l-63.79,17.663-47.2-35.325L0,61.017Z" transform="translate(1546.002 464.466) rotate(77)" fill="#ff9300"/>
    <path id="Path_5" data-name="Path 5" d="M102.022,355.533s125.288-76.95,269.319-5.368c12.926,14.822,51.7-129.691,51.7-129.691L468.1,61.017,427.292,35.325,384.082,70.651l-62.413-9.634L292.863,0H181.239L154.833,52.988,94.82,70.651,50.411,35.325,0,61.017Z" transform="translate(1651.302 1012.102) rotate(114)" fill="#92d050"/>
    <path id="Path_6" data-name="Path 6" d="M117,327.6s143.678-70.906,308.851-4.946c14.823,13.657,59.293-119.5,59.293-119.5L536.81,56.223l-46.8-23.673L440.459,65.1l-71.575-8.877L335.85,0H207.842L177.56,48.826,108.738,65.1,57.81,32.55,0,56.223Z" transform="translate(1415.215 1463.924) rotate(151)" fill="#0096ff"/>
    <path id="Path_7" data-name="Path 7" d="M117.634,355.533s144.46-76.95,310.531-5.368c14.9,14.822,59.615-129.691,59.615-129.691L539.731,61.017,492.678,35.325,442.856,70.651l-71.964-9.634L337.678,0H208.973L178.526,52.988l-69.2,17.663L58.125,35.325,0,61.017Z" transform="matrix(-0.946, -0.326, 0.326, -0.946, 851.403, 1762.385)" fill="#bf1d00" stroke="#707070" stroke-width="1"/>
    <g id="_01" data-name="01" transform="translate(706.542 449.062)">
      <path id="Path_10" data-name="Path 10" d="M1461.934,553.2s103.02-53.906,252.759-5.989c1.671.535-1.166-.276,0,0-.088.32,2.066-.153,0,0-1.333.094,3.648.928,2.344,3.448-5.286,9.894-18.016,32.75-17.917,36.635.419,11.73,0-4.146,0-4.146L1654.8,571.168,1616.13,709.345l-18.035,26s-14.593,16.3-31.876-26-44.389-138.177-44.389-138.177l-50.313,11.979Z" transform="translate(-1461.934 -527.363)" fill="#0071bf"/>
      <text id="_01-2" data-name="01" transform="translate(100.458 106.938)" fill="#fff" font-size="55" font-family="Poppins-Black, Poppins" font-weight="800"><tspan x="0" y="0">01</tspan></text>
    </g>
    <g id="_02" data-name="02" transform="translate(861.306 448.973)">
      <path id="Path_11" data-name="Path 11" d="M0,27.014s107.713-56.362,264.273-6.262c1.747.559-1.22-.288,0,0-.093.335,2.159-.16,0,0-1.394.1,3.814.971,2.451,3.605C261.2,34.7,247.888,58.6,247.991,62.661c.438,12.264,0-4.335,0-4.335L201.649,45.8,161.221,190.272l-18.857,27.189s-15.257,17.042-33.328-27.189S62.624,45.8,62.624,45.8L10.02,58.326Z" transform="matrix(0.766, 0.643, -0.643, 0.766, 141.856, 0)" fill="#bf1d00"/>
      <text id="_02-2" data-name="02" transform="translate(164.815 162.956)" fill="#fff" font-size="54" font-family="Poppins-Black, Poppins" font-weight="800"><tspan x="0" y="0">02</tspan></text>
    </g>
    <g id="_03" data-name="03" transform="matrix(1, 0.017, -0.017, 1, 1008.634, 657.74)">
      <path id="Path_12" data-name="Path 12" d="M0,28S111.648-30.42,273.929,21.509c1.811.579-1.264-.3,0,0-.1.347,2.238-.166,0,0-1.445.1,3.953,1.006,2.541,3.737-5.729,10.722-19.525,35.493-19.417,39.7.454,12.712,0-4.494,0-4.494L209.016,47.474l-41.905,149.75-19.546,28.182s-15.814,17.665-34.545-28.182S64.912,47.474,64.912,47.474L10.386,60.457Z" transform="translate(224.55 0) rotate(79)" fill="#bf6e00"/>
      <text id="_03-2" data-name="03" transform="translate(136.406 170.597)" fill="#fff" font-size="54" font-family="Poppins-Black, Poppins" font-weight="800"><tspan x="0" y="0">03</tspan></text>
    </g>
    <g id="_05" data-name="05" transform="translate(790.022 1027.593)">
      <path id="Path_14" data-name="Path 14" d="M0,28.04s111.807-58.5,274.317-6.5c1.813.58-1.266-.3,0,0-.1.347,2.242-.167,0,0-1.447.1,3.959,1.008,2.545,3.742-5.737,10.738-19.553,35.544-19.445,39.76.455,12.73,0-4.5,0-4.5l-48.1-13L167.348,197.5l-19.574,28.222s-15.837,17.69-34.595-28.222S65,47.541,65,47.541l-54.6,13Z" transform="translate(354.514 198.386) rotate(150)" fill="#004b7f"/>
      <text id="_05-2" data-name="05" transform="translate(158.978 226.407)" fill="#fff" font-size="54" font-family="Poppins-Black, Poppins" font-weight="800"><tspan x="0" y="0">05</tspan></text>
    </g>
    <g id="_06" data-name="06" transform="translate(572.46 1066.84)">
      <path id="Path_15" data-name="Path 15" d="M0,30.205s120.441-63.021,295.5-7c1.953.625-1.364-.322,0,0-.1.374,2.414-.179,0,0-1.559.109,4.264,1.085,2.74,4.031-6.18,11.567-21.062,38.289-20.946,42.83.489,13.713,0-4.847,0-4.847l-51.818-14L180.271,212.755l-21.084,30.4s-17.06,19.056-37.267-30.4-51.9-161.543-51.9-161.543l-58.82,14Z" transform="matrix(-0.966, -0.259, 0.259, -0.966, 288.326, 315.614)" fill="#7f1300"/>
      <text id="_06-2" data-name="06" transform="translate(129.54 228.16)" fill="#fff" font-size="55" font-family="Poppins-Black, Poppins" font-weight="800"><tspan x="0" y="0">06</tspan></text>
    </g>
    <path id="Path_16" data-name="Path 16" d="M0,33.071s120.139-69,294.76-7.666c1.948.684-1.36-.353,0,0-.1.41,2.408-.2,0,0-1.555.12,4.254,1.188,2.734,4.414-6.165,12.664-21.009,41.92-20.894,46.893.489,15.014,0-5.307,0-5.307L224.912,56.071,179.82,232.937l-21.032,33.285s-17.017,20.863-37.173-33.285S69.848,56.071,69.848,56.071L11.176,71.4Z" transform="matrix(0.156, -0.988, 0.988, 0.156, 382.208, 962.529)" fill="#7f4a00"/>
    <path id="Path_17" data-name="Path 17" d="M0,33.663s106.885-70.236,262.241-7.8c1.734.7-1.209-.359,0,0-.092.417,2.143-.2,0,0-1.383.122,3.785,1.21,2.433,4.493-5.485,12.891-18.692,42.671-18.589,47.733.435,15.283,0-5.4,0-5.4L200.1,57.075,159.981,237.11l-18.712,33.882S126.13,292.229,108.2,237.11,62.142,57.075,62.142,57.075L9.943,72.683Z" transform="matrix(0.766, -0.643, 0.643, 0.766, 454.502, 629.04)" fill="#49721e"/>
    <path id="Path_18" data-name="Path 18" d="M112.751,355.533s138.464-76.95,297.642-5.368c14.285,14.822,57.141-129.691,57.141-129.691L517.328,61.017l-45.1-25.691L424.474,70.651,355.5,61.017,323.662,0H200.3L171.116,52.988,104.792,70.651,55.712,35.325,0,61.017Z" transform="matrix(-0.485, -0.875, 0.875, -0.485, 276.808, 1537.063)" fill="#ff2600"/>
    <path id="Path_19" data-name="Path 19" d="M0,34.632S125.81-37.625,308.673,26.6c2.041.717-1.424-.369,0,0-.108.429,2.522-.206,0,0-1.628.126,4.455,1.244,2.863,4.622-6.456,13.262-22,43.9-21.881,49.106.512,15.723,0-5.558,0-5.558L235.528,58.717,188.307,243.932l-22.025,34.856s-17.82,21.848-38.927-34.856S73.145,58.717,73.145,58.717L11.7,74.774Z" transform="translate(541.214 1281.847) rotate(-122)" fill="#ff2600"/>
    <g id="_04" data-name="04" transform="translate(968.135 874.919)">
      <path id="Path_13" data-name="Path 13" d="M0,26.041S103.837-28.292,254.763,20c1.684.539-1.176-.278,0,0-.089.323,2.082-.155,0,0-1.344.094,3.677.936,2.363,3.476-5.328,9.972-18.159,33.01-18.059,36.926.422,11.823,0-4.179,0-4.179L194.393,44.153,155.42,183.425l-18.178,26.21s-14.708,16.429-32.129-26.21S60.371,44.153,60.371,44.153L9.659,56.227Z" transform="translate(299.027 86.532) rotate(114)" fill="#6eaa2e"/>
      <text id="_04-2" data-name="04" transform="translate(138.865 185.081)" fill="#fff" font-size="55" font-family="Poppins-Black, Poppins" font-weight="800"><tspan x="0" y="0">04</tspan></text>
    </g>
    <text id="_07" data-name="07" transform="translate(488 1135)" fill="#fff" font-size="55" font-family="Poppins-Black, Poppins" font-weight="800"><tspan x="0" y="0">07</tspan></text>
    <text id="_08" data-name="08" transform="translate(443 848)" fill="#fff" font-size="54" font-family="Poppins-Black, Poppins" font-weight="800"><tspan x="0" y="0">08</tspan></text>
    <text id="_09" data-name="09" transform="translate(563 613)" fill="#fff" font-size="55" font-family="Poppins-Black, Poppins" font-weight="800"><tspan x="0" y="0">09</tspan></text>
    <text id="Dream_Sparks_Foundation" data-name="Dream Sparks 
Foundation" transform="translate(857.115 915.099)" fill="#7f4a00" font-size="54" font-family="Poppins-Bold, Poppins" font-weight="700"><tspan x="-202.77" y="0">Dream Sparks </tspan><tspan x="-159.354" y="60">Foundation</tspan></text>
    <g id="Component_1_1" data-name="Component 1 – 1" transform="matrix(0.829, 0.559, -0.559, 0.829, 1121.312, 301.865)">
      <text id="Cataract_Surgeries" data-name="Cataract
 Surgeries" transform="translate(115 47)" fill="#fff" font-size="45" font-family="Poppins-Bold, Poppins" font-weight="700"><tspan x="-104.49" y="0">Cataract</tspan><tspan x="-115.222" y="56" xml:space="preserve"> Surgeries</tspan></text>
    </g>
    <g id="Component_1_2" data-name="Component 1 – 2" transform="translate(1474.593 621.994) rotate(79)">
      <text id="Blood_Donation_Drive" data-name="Blood 
Donation 
Drive" transform="translate(111 47)" fill="#fff" font-size="45" font-family="Poppins-Bold, Poppins" font-weight="700"><tspan x="-70.177" y="0">Blood </tspan><tspan x="-111.173" y="56">Donation </tspan><tspan x="-60.57" y="112">Drive</tspan></text>
    </g>
    <g id="Component_1_3" data-name="Component 1 – 3" transform="translate(1321.641 1007.986) rotate(40)">
      <text id="Physiocare_for_the_elderly" data-name="Physiocare 
for the 
elderly" transform="translate(134 47)" fill="#fff" font-size="45" font-family="Poppins-Bold, Poppins" font-weight="700"><tspan x="-134.1" y="0">Physiocare </tspan><tspan x="-79.762" y="56">for the </tspan><tspan x="-80.123" y="112">elderly</tspan></text>
    </g>
    <g id="Component_1_4" data-name="Component 1 – 4" transform="matrix(0.766, -0.643, 0.643, 0.766, 882.207, 1476.462)">
      <text id="Education_And_Welfare" data-name="Education 
And 
Welfare" transform="translate(122 47)" fill="#fff" font-size="45" font-family="Poppins-Bold, Poppins" font-weight="700"><tspan x="-121.545" y="0">Education </tspan><tspan x="-51.795" y="56">And </tspan><tspan x="-91.035" y="112">Welfare</tspan></text>
    </g>
    <g id="Component_1_5" data-name="Component 1 – 5" transform="matrix(0.899, 0.438, -0.438, 0.899, 522.108, 1351.611)">
      <text id="Green_Fingers" data-name="Green 
Fingers" transform="translate(85 47)" fill="#fff" font-size="45" font-family="Poppins-Bold, Poppins" font-weight="700"><tspan x="-74.43" y="0">Green </tspan><tspan x="-85.433" y="56">Fingers</tspan></text>
    </g>
    <g id="Component_1_6" data-name="Component 1 – 6" transform="translate(286.368 1068.183) rotate(45)">
      <text id="Clean-Up_Drive" data-name="Clean-Up 
Drive" transform="translate(117 111.688)" fill="#fff" font-size="45" font-family="Poppins-Bold, Poppins" font-weight="700"><tspan x="-117.045" y="0">Clean-Up </tspan><tspan x="-60.57" y="56">Drive</tspan></text>
      <path id="clean-up-after-pet-clean-after-pet-sign-pick-up-after-your-pet-sign-svgrepo-com" d="M32.773,60.211H15.834A13.406,13.406,0,0,1,2.476,48.125a13.235,13.235,0,0,1,1.986-8.43L17.189,19.333,6.356,2H41.694L30.861,19.332,43.587,39.694a13.411,13.411,0,0,1-10.1,20.458l-.047.044ZM12.261,5.273l8.787,14.059L7.238,41.429a9.99,9.99,0,0,0-1.506,6.362,10.156,10.156,0,0,0,10.1,9.147H32.525l.188-.013a10.137,10.137,0,0,0,8.1-15.5L27,19.332l8.787-14.06H12.261ZM33.412,45.959a.609.609,0,0,1-.307-.911,3.089,3.089,0,0,0,.5-1.7v-.325a3.107,3.107,0,0,0-2.692-3.078c-.047-.012-.441-.028-.441-.028-1.936-.122-1.965-1.461-1.965-1.461h0c-.335-4.19-3.3-5.213-3.3-5.213A6.719,6.719,0,0,1,23.2,37.9c-2.008,1.707-5.868,2.018-5.868,2.018l.014.007a3.106,3.106,0,0,0-2.9,3.1v.325a3.089,3.089,0,0,0,.5,1.7.609.609,0,0,1-.307.911,3.793,3.793,0,0,0-2.582,3.594h0a3.792,3.792,0,0,0,3.792,3.792H32.2a3.792,3.792,0,0,0,3.792-3.792h0A3.792,3.792,0,0,0,33.412,45.959Z" transform="translate(92.655 -2)" fill="#fff"/>
    </g>
    <g id="watertank" transform="translate(6.529 491.344)">
      <path id="Path_8" data-name="Path 8" d="M117.431,355.533s144.211-76.95,310-5.368c14.878,14.822,59.513-129.691,59.513-129.691L538.8,61.017,491.828,35.325,442.093,70.651l-71.84-9.634L337.1,0H208.613L178.219,52.988,109.142,70.651,58.025,35.325,0,61.017Z" transform="matrix(0.191, -0.982, 0.982, 0.191, 0, 528.902)" fill="#bf6e00"/>
      <g id="Component_1_7" data-name="Component 1 – 7" transform="matrix(0.999, 0.052, -0.052, 0.999, 127.181, 265.891)">
        <text id="Water_Tanks" data-name="Water 
Tanks" transform="translate(76 47)" fill="#fff" font-size="45" font-family="Poppins-Bold, Poppins" font-weight="700"><tspan x="-76.342" y="0">Water </tspan><tspan x="-70.2" y="56">Tanks</tspan></text>
      </g>
      <path id="water-tank-svgrepo-com" d="M61.044,25a31.166,31.166,0,0,0-10.284,2.06,13.853,13.853,0,0,0-4.115,2.4,5.423,5.423,0,0,0-.838.978H76.28a5.391,5.391,0,0,0-.834-.978,13.888,13.888,0,0,0-4.117-2.4A31.166,31.166,0,0,0,61.044,25ZM48.167,33.706v23.56l12.878,7.727,12.878-7.727V33.706ZM78.456,47.853v3.265h4.172v2.539H77.187v3.265h9.3l5.314,5.332,2.322-2.322-6.294-6.276H85.893V51.118h4.172V47.853ZM47.378,60.6,39.12,110.155l3.221.544L45.5,91.746H76.588L79.744,110.7l3.228-.544L74.72,60.6l-3.029,1.814,2.485,14.836L61.044,82.042l-13.128-4.77L50.4,62.417Zm47.729,4.063s-1.85,9,.943,10.828c1.777,1.161,5.224-.526,5.623-2.793C102.362,69.146,95.107,64.667,95.107,64.667Zm5.3,15.471s-2.43,5.278-1.052,6.983a2.44,2.44,0,0,0,3.736-.653C104.03,84.364,100.4,80.138,100.4,80.138Zm-53.036.417,8.871,3.228L46.223,87.429Zm27.353,0,1.143,6.874L65.851,83.783Zm32.466,1.36s.254,5.822,2.249,6.693a2.461,2.461,0,0,0,3.047-2.3c-.145-2.285-5.3-4.389-5.3-4.389ZM61.044,85.525l8.126,2.956H52.919ZM106.7,92.87s-.617,3.9.617,4.752a1.679,1.679,0,0,0,2.322-1.143C109.87,94.92,106.7,92.87,106.7,92.87Z" transform="translate(150.102 134.126)" fill="#fff"/>
    </g>
    <path id="Path_9" data-name="Path 9" d="M108,355.533s132.629-76.95,285.1-5.368c13.683,14.822,54.733-129.691,54.733-129.691l47.7-159.458-43.2-25.691L406.587,70.651l-66.07-9.634L310.022,0H191.858L163.905,52.988,100.376,70.651,53.364,35.325,0,61.017Z" transform="matrix(0.799, -0.602, 0.602, 0.799, 138.846, 409.378)" fill="#6eaa2e"/>
    <g id="Component_1_8" data-name="Component 1 – 8" transform="translate(419.511 280.016) rotate(47)">
      <text id="Old_Age_Homes" data-name="Old 
Age
 Homes" transform="translate(86 47)" fill="#fff" font-size="45" font-family="Poppins-Bold, Poppins" font-weight="700"><tspan x="-44.37" y="0">Old </tspan><tspan x="-45.72" y="56">Age</tspan><tspan x="-85.793" y="112" xml:space="preserve"> Homes</tspan></text>
    </g>
    <path id="home-svgrepo-com" d="M0,34.623l4.98,4.9h9.881V74.146a4.859,4.859,0,0,0,4.9,4.9h9.881V59.285a4.731,4.731,0,0,1,1.423-3.478,4.826,4.826,0,0,1,3.557-1.423H44.5a4.9,4.9,0,0,1,3.478,1.423A4.36,4.36,0,0,1,49.4,59.285V79.047h9.881a4.731,4.731,0,0,0,3.478-1.423,5.02,5.02,0,0,0,1.5-3.478V39.524h9.881l4.9-4.9L39.524,0Zm29.643,0a9.591,9.591,0,0,1,2.925-7.035,9.228,9.228,0,0,1,6.956-2.846,10.08,10.08,0,0,1,6.956,2.846A9.264,9.264,0,0,1,49.4,34.623a9.014,9.014,0,0,1-2.925,6.956A10.928,10.928,0,0,1,39.524,44.5a8.435,8.435,0,0,1-6.956-2.925,10.036,10.036,0,0,1-2.925-6.956Z" transform="matrix(0.766, 0.643, -0.643, 0.766, 528.012, 264.286)" fill="#fff"/>
    <g id="doctor-patient-svgrepo-com" transform="translate(-706 273.212)">
      <path id="doctor-patient_1_" d="M115.445,106.576H112.74V72.755a28.588,28.588,0,0,0-20.12-27.4,1.352,1.352,0,0,1-.248-2.477,17.439,17.439,0,1,0-16.682,0,1.352,1.352,0,0,1-.248,2.477,28.591,28.591,0,0,0-20.124,27.4v33.822H52.612V72.755a31.443,31.443,0,0,1,3.548-14.57A28.647,28.647,0,0,0,47.8,49.162v8.561A16.411,16.411,0,0,1,32.77,74.055v8.752a6.99,6.99,0,1,1-2.706,0V74.055A16.409,16.409,0,0,1,15.032,57.723V49.151a28.581,28.581,0,0,0-12.326,23.6v33.822H0V72.755A31.266,31.266,0,0,1,19.395,43.717a20.054,20.054,0,0,1,3.179-34.16c-.015-.225-.026-.455-.026-.688a8.869,8.869,0,1,1,17.738,0c0,.233-.008.462-.026.688A20.055,20.055,0,0,1,43.435,43.72,31.27,31.27,0,0,1,57.7,55.543,31.252,31.252,0,0,1,72.011,43.72a20.146,20.146,0,1,1,24.036,0,31.274,31.274,0,0,1,19.4,29.038Zm-84.029-21.2A4.284,4.284,0,1,0,35.7,89.666,4.289,4.289,0,0,0,31.417,85.381ZM17.738,47.493V57.723a13.679,13.679,0,1,0,27.358,0V47.5A29.009,29.009,0,0,0,40,45.355a1.352,1.352,0,0,1-.248-2.477,17.363,17.363,0,0,0-.143-30.616,8.872,8.872,0,0,1-16.392,0,17.36,17.36,0,0,0-.143,30.613,1.352,1.352,0,0,1-.248,2.477A29.131,29.131,0,0,0,17.738,47.493ZM31.417,2.706A6.163,6.163,0,1,0,37.58,8.869,6.172,6.172,0,0,0,31.417,2.706ZM84.029,89.139a1.354,1.354,0,0,1-.958-.395L71.9,77.572a8.021,8.021,0,0,1,5.656-13.69h.019a8,8,0,0,1,5.671,2.349l.785.793.785-.789a8.233,8.233,0,0,1,11.345,0,8.026,8.026,0,0,1,0,11.342L84.987,88.749A1.366,1.366,0,0,1,84.029,89.139ZM77.572,66.591h-.011a5.309,5.309,0,0,0-3.747,9.064L84.029,85.874,94.243,75.656a5.314,5.314,0,0,0,0-7.508,5.428,5.428,0,0,0-7.512,0l-1.744,1.744a1.354,1.354,0,0,1-1.917,0l-1.744-1.744A5.27,5.27,0,0,0,77.572,66.591Z" transform="translate(1957.984 0) rotate(30)" fill="#fff"/>
      <rect id="_Transparent_Rectangle" width="340" height="340" transform="translate(0 440.789)" fill="none"/>
    </g>
    <g id="blood-drop-svgrepo-com" transform="translate(1575.735 680.461) rotate(70)">
      <path id="primary" d="M49.132,25.454c-3.915-5.85-8.8-13.2-14.515-23.225a4.4,4.4,0,0,0-7.654,0C21.2,12.391,16.363,19.824,12.448,25.454,4.4,37.507,0,44.016,0,57.212a30.79,30.79,0,0,0,61.58,0C61.58,44.016,57.182,37.507,49.132,25.454Z" transform="translate(0 0)" fill="#fff"/>
      <path id="secondary" d="M35.409,17.625c-2.551-3.871-5.762-8.8-9.589-15.4a4.4,4.4,0,0,0-7.654,0c-3.827,6.6-7.038,11.524-9.369,15.4C3.211,25.63,0,30.469,0,39.618a21.993,21.993,0,0,0,43.986,0C43.986,30.469,40.775,25.63,35.409,17.625Z" transform="translate(35.189 21.993)" fill="#2ca9bc"/>
    </g>
    <path id="twisting-arms-svgrepo-com" d="M102.536,85.883a2.2,2.2,0,0,1-2.2,2.2H2.2a2.2,2.2,0,0,1,0-4.4h98.134A2.2,2.2,0,0,1,102.536,85.883ZM41.211,10.076A10.076,10.076,0,1,1,51.286,20.151,10.087,10.087,0,0,1,41.211,10.076Zm4.4,0A5.673,5.673,0,1,0,51.286,4.4,5.68,5.68,0,0,0,45.613,10.076ZM66.057,74.017l-8.79-28.055a2.2,2.2,0,0,0-4.2,1.316l9.273,29.6a2.2,2.2,0,0,0,2.1,1.543h6.712a2.2,2.2,0,1,0,0-4.4ZM20.916,20.2l24.29,9.032V46.284L36.519,74.017h-5.1a2.2,2.2,0,0,0,0,4.4h6.713a2.2,2.2,0,0,0,2.1-1.543l9.272-29.6v0c.012-.037.02-.076.03-.114a2.195,2.195,0,0,0,.07-.561V30.868L78,41.427A2.2,2.2,0,1,0,79.539,37.3L22.45,16.073A2.2,2.2,0,0,0,20.916,20.2ZM68.535,12.73c7.152,2.973,11.543,7.864,12.048,13.419a12.14,12.14,0,0,1-.338,4.108,2.2,2.2,0,1,0,4.266,1.088,16.523,16.523,0,0,0,.456-5.594c-.657-7.237-6.03-13.464-14.742-17.085a2.2,2.2,0,1,0-1.69,4.065ZM35.651,50.155a2.2,2.2,0,0,0,1.3-4.207c-8.813-2.716-14.418-8.129-14.995-14.48a12.135,12.135,0,0,1,.234-3.67,2.2,2.2,0,0,0-4.3-.933,16.53,16.53,0,0,0-.315,5C18.312,40.058,25.072,46.895,35.651,50.155Z" transform="translate(1483.241 986.907) rotate(41)" fill="#fff"/>
    <path id="care-about-animals-svgrepo-com" d="M49.174,74.7c-1.007-4.615-8.754-4.436-11.386-4.364C35.155,70.264,27.41,70.084,26.4,74.7c-.957,4.383,5.391,9.006,9.407,11.044v4.139l-2.96.433a1.979,1.979,0,1,0,.572,3.917l4.367-.639,4.367.639a2.017,2.017,0,0,0,.289.021,1.98,1.98,0,0,0,.284-3.938l-2.961-.433v-4.14C43.783,83.705,50.13,79.082,49.174,74.7ZM37.788,82.312a23.265,23.265,0,0,1-5.252-3.536c-2.023-1.844-2.321-2.98-2.266-3.232,0-.014.648-1.265,6.3-1.265q.549,0,1.162.016.054,0,.108,0c6.726-.184,7.461,1.234,7.464,1.249.055.252-.243,1.388-2.266,3.232A23.245,23.245,0,0,1,37.788,82.312Zm15.123,29.28a1.98,1.98,0,0,1-1.131,2.561,38.592,38.592,0,0,1-13.992,2.6C16.952,116.751,0,100.286,0,80.048A35.839,35.839,0,0,1,4.513,62.642,13.3,13.3,0,0,1,.236,52.927,13.612,13.612,0,0,1,14.008,39.513a13.81,13.81,0,0,1,11.381,5.854,39.005,39.005,0,0,1,24.8,0,13.809,13.809,0,0,1,11.381-5.854A13.612,13.612,0,0,1,75.34,52.927a13.3,13.3,0,0,1-4.277,9.715l.027.049a1.979,1.979,0,1,1-3.462,1.92c-.26-.469-.534-.937-.814-1.389a1.979,1.979,0,0,1,.542-2.659,9.391,9.391,0,0,0,4.025-7.636,9.65,9.65,0,0,0-9.813-9.456,9.815,9.815,0,0,0-8.776,5.221,1.979,1.979,0,0,1-2.469.932,34.99,34.99,0,0,0-25.07,0,1.98,1.98,0,0,1-2.469-.932,9.816,9.816,0,0,0-8.777-5.221,9.65,9.65,0,0,0-9.813,9.456A9.389,9.389,0,0,0,8.22,60.563a1.979,1.979,0,0,1,.541,2.661,31.9,31.9,0,0,0-4.8,16.824c0,18.055,15.176,32.744,33.829,32.744a34.65,34.65,0,0,0,12.563-2.331A1.979,1.979,0,0,1,52.911,111.592ZM101.32,87.486A22.722,22.722,0,0,0,98.6,80.205a5.16,5.16,0,0,0-3.222-1.928,1.967,1.967,0,0,0-1.3.31A30.325,30.325,0,0,0,92.3,73.859c-1.23-2.826-2.856-4.6-4.836-5.273a5.628,5.628,0,0,0-2.824-.209c-.06-.637-.109-1.233-.137-1.77a1.981,1.981,0,0,0-1.045-1.695,1.984,1.984,0,0,0-.255-.115,7.694,7.694,0,0,0-9,2.076c-2.423,2.554-2.589,6.777-2.765,11.25C71.3,81.614,69.9,87.165,68.627,91.2A3.018,3.018,0,0,1,66.777,93.4c-.188.018-.386-.161-.591-.533a10.226,10.226,0,0,1-.465-.985c-.163-.394-.321-.919-.487-1.476a17.2,17.2,0,0,0-1.126-3.028,13.807,13.807,0,0,0-4.181-5.2,7.423,7.423,0,0,0-4.255-1.147,4.78,4.78,0,0,0-3.419,1.574,8.312,8.312,0,0,0-1.808,5.933,19.376,19.376,0,0,0,1.265,4.943c.927,2.171,1.575,3.92,2.2,5.613a48.134,48.134,0,0,0,5.564,11.566,16.779,16.779,0,0,0,1.446,1.768,8.9,8.9,0,0,1,2.691,6.415c0,.034,0,.068,0,.1a4.6,4.6,0,0,0,4.443,4.733H88.7a1.987,1.987,0,0,0,.3-.023,4.434,4.434,0,0,0,3.83-3c.835-2.283,1.653-4.579,2.5-7.021.756-2.181,1.567-4.56,2.477-7.275C100.612,97.985,102.16,92.977,101.32,87.486Zm-7.269,17.62c-.906,2.7-1.712,5.068-2.463,7.235-.841,2.42-1.652,4.7-2.48,6.962-.1.279-.285.406-.412.406a1.96,1.96,0,0,0-.22.012H68.056c-.2,0-.484-.3-.484-.774V118.9c0-.049,0-.1,0-.146a12.745,12.745,0,0,0-3.7-8.963,13.7,13.7,0,0,1-1.122-1.355,44.364,44.364,0,0,1-5.122-10.708c-.613-1.655-1.308-3.532-2.273-5.792a16.553,16.553,0,0,1-.951-3.577,4.6,4.6,0,0,1,.767-3.064.836.836,0,0,1,.643-.3l.113,0a3.5,3.5,0,0,1,1.764.455A10.123,10.123,0,0,1,60.6,89.207a14.056,14.056,0,0,1,.846,2.338,19.471,19.471,0,0,0,.625,1.861,14.212,14.212,0,0,0,.652,1.374,4.5,4.5,0,0,0,4.45,2.563c2.267-.225,4.37-2.217,5.234-4.957.654-2.075,2.8-9.224,2.992-14.109.139-3.542.283-7.2,1.681-8.678a3.777,3.777,0,0,1,3.573-1.431c.08.925.187,1.929.3,2.969.387,3.6.868,8.084.257,10.833-1.055,4.744-1.992,8.88-2.771,11.453a1.979,1.979,0,0,0,3.789,1.147c.82-2.709,1.735-6.746,2.846-11.74.655-2.942.363-6.833-.013-10.489a1.774,1.774,0,0,1,1.137-.007c.855.291,1.735,1.393,2.48,3.1,1.839,4.225,1.812,4.411,1.491,6.685-.053.378-.126.8-.222,1.285-.267,1.344-.506,2.65-.737,3.913a77.9,77.9,0,0,1-1.748,8.048,1.979,1.979,0,1,0,3.792,1.138,80.514,80.514,0,0,0,1.85-8.474c.228-1.248.464-2.539.725-3.853.111-.561.2-1.054.26-1.5.035-.25.067-.485.095-.709a1.975,1.975,0,0,0,.649.231,3.488,3.488,0,0,1,.472.234A18.413,18.413,0,0,1,97.41,88.1C98.108,92.672,96.664,97.308,94.051,105.106ZM26.37,63.444a1.975,1.975,0,0,1,1.974-1.979h.011a1.979,1.979,0,1,1-1.985,1.979Zm20.851,1.979a1.979,1.979,0,1,1,.011,0Z" transform="translate(1157.329 1282.932)" fill="#fff"/>
    <g id="hand-water-gesture-finger-fingers-svgrepo-com" transform="translate(713.146 1459.342)">
      <path id="Path_20" data-name="Path 20" d="M19.949,62.947H38.53c1.49-1.483,3.128-3.026,4.792-4.6A153.9,153.9,0,0,0,54.188,47.3c4.274-4.932,4.731-6.638,6.032-11.464.25-.9.518-1.921.87-3.188l2.224-7.81.026-.083c1.191-3.483,1.286-5.775.794-7.1a1.563,1.563,0,0,0-.579-.821,1.013,1.013,0,0,0-.662-.136,3.037,3.037,0,0,0-1.827,1.078L54.464,33.5a1.691,1.691,0,0,1-.242.4,8.465,8.465,0,0,1-1.592,2.042l-11.7,13.06a1.722,1.722,0,0,1-2.568-2.3L50.077,33.643c.053-.061.106-.121.163-.174a3.639,3.639,0,0,0,1.38-3.309,1.478,1.478,0,0,0-.352-.681,1.038,1.038,0,0,0-.639-.265c-1.044-.113-2.576.662-4.455,2.878-.053.061-.113.121-.174.182l-4.542,4.005-.023.026A38.709,38.709,0,0,1,30.558,44.07c-.8.424-1.691.881-2.784,1.475a12.73,12.73,0,0,0-1.278.836c-.439.337-.859.688-1.263,1.025a11.841,11.841,0,0,0-3.718,4.637,25.65,25.65,0,0,0-1.18,6.2c-.129,1.074-.223,2.137-.291,3.2-.045.5-.072,1.01-.095,1.509Zm22.916.594a1.773,1.773,0,0,1,.424,1.138v10.3a1.735,1.735,0,0,1-1.736,1.732H18.171a1.737,1.737,0,0,1-1.732-1.732c0-4.55-.155-9.24.147-13.782.076-1.127.182-2.25.3-3.359a27.418,27.418,0,0,1,1.4-7.088,15,15,0,0,1,4.69-6.014c.458-.39.923-.787,1.411-1.146a13.885,13.885,0,0,1,1.71-1.112c1.017-.552,1.963-1.051,2.833-1.509a35.9,35.9,0,0,0,10.1-7.231,1.253,1.253,0,0,1,.113-.095l4.429-3.914c2.708-3.162,5.352-4.213,7.379-4h.008a4.427,4.427,0,0,1,2.515,1.085l4.474-10.65h.008a1.781,1.781,0,0,1,.269-.431,6.655,6.655,0,0,1,4.308-2.5,4.449,4.449,0,0,1,2.89.681,4.969,4.969,0,0,1,1.921,2.508c.749,1.989.734,5.087-.734,9.368l-2.2,7.765c-.321,1.12-.605,2.2-.862,3.147-1.441,5.386-1.948,7.292-6.759,12.825a155.3,155.3,0,0,1-11.108,11.3c-.93.923-1.868,1.8-2.818,2.716ZM19.9,66.411v6.834H39.832V66.411Z" transform="translate(38.061 31.08)" fill="#fff"/>
      <path id="Path_21" data-name="Path 21" d="M49.889,62.947H31.308c-1.49-1.483-3.128-3.026-4.792-4.6A153.9,153.9,0,0,1,15.65,47.3c-4.274-4.932-4.731-6.638-6.032-11.464-.25-.9-.518-1.921-.87-3.188l-2.224-7.81L6.5,24.759c-1.191-3.483-1.286-5.775-.794-7.1a1.563,1.563,0,0,1,.579-.821,1.013,1.013,0,0,1,.662-.136A3.037,3.037,0,0,1,8.77,17.777l6.6,15.718a1.691,1.691,0,0,0,.242.4,8.465,8.465,0,0,0,1.592,2.042l11.7,13.06a1.722,1.722,0,0,0,2.568-2.3L19.761,33.643c-.053-.061-.106-.121-.163-.174a3.639,3.639,0,0,1-1.38-3.309,1.478,1.478,0,0,1,.352-.681,1.038,1.038,0,0,1,.639-.265c1.044-.113,2.576.662,4.455,2.878.053.061.113.121.174.182l4.542,4.005.023.026A38.709,38.709,0,0,0,39.281,44.07c.8.424,1.691.881,2.784,1.475a12.73,12.73,0,0,1,1.278.836c.439.337.859.688,1.263,1.025a11.841,11.841,0,0,1,3.718,4.637,25.649,25.649,0,0,1,1.18,6.2c.129,1.074.223,2.137.291,3.2.045.5.072,1.01.095,1.509Zm-22.916.594a1.773,1.773,0,0,0-.424,1.138v10.3a1.735,1.735,0,0,0,1.736,1.732H51.667A1.737,1.737,0,0,0,53.4,74.977c0-4.55.155-9.24-.148-13.782-.076-1.127-.182-2.25-.3-3.359a27.418,27.418,0,0,0-1.4-7.088,15,15,0,0,0-4.69-6.014c-.458-.39-.923-.787-1.411-1.146a13.885,13.885,0,0,0-1.71-1.112c-1.017-.552-1.963-1.051-2.833-1.509a35.9,35.9,0,0,1-10.1-7.231,1.253,1.253,0,0,0-.113-.095l-4.429-3.914c-2.708-3.162-5.352-4.213-7.379-4h-.008a4.427,4.427,0,0,0-2.515,1.085l-4.474-10.65h-.008a1.781,1.781,0,0,0-.269-.431,6.655,6.655,0,0,0-4.308-2.5,4.449,4.449,0,0,0-2.89.681,4.969,4.969,0,0,0-1.921,2.508c-.749,1.989-.734,5.087.734,9.368l2.2,7.765c.321,1.12.605,2.2.862,3.147,1.441,5.386,1.948,7.292,6.759,12.825a155.3,155.3,0,0,0,11.108,11.3C25.086,61.748,26.024,62.629,26.974,63.54Zm22.961,2.871v6.834H30.007V66.411Z" transform="translate(-2 31.08)" fill="#fff"/>
      <path id="Path_22" data-name="Path 22" d="M30.841,2.585a1.889,1.889,0,0,0-3.419,0S11.28,36.991,11.28,51.726a17.852,17.852,0,0,0,35.7,0c0-14.735-16.142-49.141-16.142-49.141Zm-1.71,5.34c-4.088,9.088-14.069,32.45-14.069,43.8a14.069,14.069,0,0,0,28.139,0c0-11.35-9.981-34.712-14.069-43.8Z" transform="translate(23.818 -1.5)" fill="#fff" fill-rule="evenodd"/>
      <path id="Path_23" data-name="Path 23" d="M13.866,14.915a17.6,17.6,0,0,0-.314,6.312,8.342,8.342,0,0,0,3.865,6.188,10.333,10.333,0,0,0,5.949,1.214,1.89,1.89,0,0,0-.212-3.775,6.7,6.7,0,0,1-3.812-.7,4.646,4.646,0,0,1-2.054-3.514,13.321,13.321,0,0,1,.238-4.781,1.891,1.891,0,0,0-3.661-.949Z" transform="translate(29.689 31.881)" fill="#fff" fill-rule="evenodd"/>
    </g>
  </g>
</svg>
