<svg xmlns="http://www.w3.org/2000/svg" xmlns:xlink="http://www.w3.org/1999/xlink" width="1228" height="238" viewBox="0 0 1228 238">
  <defs>
    <linearGradient id="linear-gradient" x1="0.5" x2="0.5" y2="1" gradientUnits="objectBoundingBox">
      <stop offset="0" stop-color="#3292d2"/>
      <stop offset="1" stop-color="#59bcfe"/>
    </linearGradient>
    <linearGradient id="linear-gradient-2" x1="0.5" x2="0.5" y2="1" gradientUnits="objectBoundingBox">
      <stop offset="0" stop-color="#119af5"/>
      <stop offset="1" stop-color="#6dc0f9"/>
    </linearGradient>
    <linearGradient id="linear-gradient-3" x1="0.5" x2="0.5" y2="1" gradientUnits="objectBoundingBox">
      <stop offset="0" stop-color="#e43350"/>
      <stop offset="0" stop-color="#e03152"/>
      <stop offset="1" stop-color="#ca255f"/>
      <stop offset="1" stop-color="#bd1e66"/>
      <stop offset="1" stop-color="#b2186d"/>
    </linearGradient>
    <filter id="Path_4" x="5.969" y="114.35" width="284.01" height="78.473" filterUnits="userSpaceOnUse">
      <feOffset dx="20" dy="30" input="SourceAlpha"/>
      <feGaussianBlur stdDeviation="10" result="blur"/>
      <feFlood flood-color="#b2186d" flood-opacity="0.161" result="color"/>
      <feComposite operator="out" in="SourceGraphic" in2="blur"/>
      <feComposite operator="in" in="color"/>
      <feComposite operator="in" in2="SourceGraphic"/>
    </filter>
    <filter id="Path_5" x="91.218" y="114.35" width="199.502" height="79.159" filterUnits="userSpaceOnUse">
      <feOffset dx="20" dy="30" input="SourceAlpha"/>
      <feGaussianBlur stdDeviation="10" result="blur-2"/>
      <feFlood flood-color="#b2186d" flood-opacity="0.161" result="color-2"/>
      <feComposite operator="out" in="SourceGraphic" in2="blur-2"/>
      <feComposite operator="in" in="color-2"/>
      <feComposite operator="in" in2="SourceGraphic"/>
    </filter>
    <clipPath id="clip-Dream_Spark_Foundation">
      <rect width="1228" height="238"/>
    </clipPath>
  </defs>
  <g id="Dream_Spark_Foundation" data-name="Dream Spark Foundation" clip-path="url(#clip-Dream_Spark_Foundation)">
    <g id="Group_1" data-name="Group 1" transform="translate(-121 -183.78)">
      <g id="icon" transform="translate(126.969 202.994)">
        <path id="Path_1" data-name="Path 1" d="M598.64,262.493c-3.543,13.97-5.777,18.589-5.442,20.019,0,2.492,7.389-15.476,7.389-15.476l-4.867,11.356s2.6,12.654,17.2,12.654S608.7,270.28,632.384,275.8s4.867-15.574,4.867-15.574l9.734-11.032,10.383,1.622,3.894-7.463H671l3.894-6.489s-13.628-9.734,0-15.9,27.255-1.947,27.255-1.947l-18.17-8.112S610,217.717,598.64,262.493Z" transform="translate(-511.309 -206.994)" fill="url(#linear-gradient)"/>
        <path id="Path_2" data-name="Path 2" d="M588,305.386l1.372-.528,4.112-1.581,5.905-6.749s5.483-2.953,7.592,0S623,305.386,623,305.386s9.222-3.768,11.91,1.8.96,8.256,0,8.832-3.456,5.568-5.76,6.144-11.328-.576-11.135.96-8.448,3.264-8.64,6.336-3.264-1.536-14.783,9.216S588,305.386,588,305.386Z" transform="translate(-509.309 -205.994)" fill="#52b5f6"/>
        <g id="Subtraction_1" data-name="Subtraction 1" transform="translate(36.691 0.006)" fill="#3292d2">
          <path d="M 107.4995956420898 214.5001068115234 C 93.05451202392578 214.5001068115234 79.04181671142578 211.671142578125 65.85073852539062 206.0917510986328 C 59.51059722900391 203.4100799560547 53.39556884765625 200.0909118652344 47.67551422119141 196.2265014648438 C 42.00959777832031 192.3986663818359 36.68159866333008 188.0026397705078 31.83948707580566 183.1604919433594 C 26.99737548828125 178.3183898925781 22.60137557983398 172.9903564453125 18.77359771728516 167.3244171142578 C 14.90912532806396 161.604248046875 11.58998680114746 155.4891662597656 8.90837574005127 149.1490325927734 C 3.328986644744873 135.9578552246094 0.5000143647193909 121.9449691772461 0.5000143647193909 107.4996109008789 C 0.5000143647193909 93.05449676513672 3.328986644744873 79.04177856445312 8.90837574005127 65.85072326660156 C 11.58998680114746 59.51066589355469 14.90912532806396 53.39563751220703 18.77359771728516 47.6755256652832 C 22.60134696960449 42.00966262817383 26.99734687805176 36.68166351318359 31.83948707580566 31.83949851989746 C 36.68170928955078 26.9973030090332 42.00970840454102 22.60130310058594 47.67548751831055 18.77360916137695 C 53.39554214477539 14.90919208526611 59.51057052612305 11.59005355834961 65.85073852539062 8.908358573913574 C 79.04181671142578 3.328969955444336 93.05451202392578 0.4999978542327881 107.4995956420898 0.4999978542327881 C 117.4137344360352 0.4999978542327881 127.1968383789062 1.849346041679382 136.6362762451172 4.51469612121582 C 136.0899963378906 4.505172252655029 135.5440216064453 4.500386714935303 135.0000152587891 4.500386714935303 C 83.44409942626953 4.500386714935303 41.50029373168945 46.89274597167969 41.50029373168945 99 C 41.50029373168945 151.1072540283203 83.44409942626953 193.4996032714844 135.0000152587891 193.4996032714844 C 154.9364776611328 193.4996032714844 174.4701995849609 186.9890594482422 190.4517974853516 175.0920715332031 C 186.1948394775391 180.3090972900391 181.4433288574219 185.1310577392578 176.2877349853516 189.4625854492188 C 170.0586547851562 194.6960601806641 163.235595703125 199.2166900634766 156.0081329345703 202.8990020751953 C 148.6504058837891 206.6476593017578 140.8563995361328 209.5352172851562 132.8426513671875 211.4813842773438 C 124.5946502685547 213.4844665527344 116.0680160522461 214.5001068115234 107.4995956420898 214.5001068115234 Z" stroke="none"/>
          <path d="M 107.4995956420898 214.0001068115234 C 116.0282897949219 214.0001068115234 124.5152359008789 212.9892272949219 132.7246551513672 210.9955291748047 C 140.70068359375 209.0585021972656 148.4580078125 206.1845245361328 155.7811279296875 202.4534759521484 C 162.9748229980469 198.7883911132812 169.7660369873047 194.2888336181641 175.9661254882812 189.0797729492188 C 180.0823516845703 185.6214904785156 183.9398803710938 181.8490142822266 187.4919738769531 177.8116455078125 C 172.0635681152344 188.2982025146484 153.7092742919922 193.9996032714844 135.0000152587891 193.9996032714844 C 83.16840362548828 193.9996032714844 41.00029373168945 151.3829650878906 41.00029373168945 99 C 41.00029373168945 47.3555793762207 81.98549652099609 5.204095363616943 132.8112945556641 4.025762557983398 C 124.5653457641602 2.015658140182495 116.08251953125 0.9999978542327881 107.4995956420898 0.9999978542327881 C 93.12179565429688 0.9999978542327881 79.17462921142578 3.815692186355591 66.04551696777344 9.36885929107666 C 59.7350959777832 12.03797054290771 53.64870834350586 15.34158134460449 47.95540237426758 19.18794250488281 C 42.31598663330078 22.997802734375 37.01276397705078 27.37335968017578 32.19304275512695 32.19305419921875 C 27.37340354919434 37.01271820068359 22.99784851074219 42.31594085693359 19.18790245056152 47.95541381835938 C 15.34151458740234 53.6488037109375 12.03793144226074 59.73516464233398 9.368875503540039 66.04549407958984 C 3.815708875656128 79.17460632324219 1.000014424324036 93.12177276611328 1.000014424324036 107.4996109008789 C 1.000014424324036 121.8776931762695 3.815708875656128 135.8250274658203 9.368875503540039 148.9542541503906 C 12.03790283203125 155.2646636962891 15.34151458740234 161.35107421875 19.18793106079102 167.0444946289062 C 22.99787521362305 172.68408203125 27.3734302520752 177.9873352050781 32.19304275512695 182.8069458007812 C 37.01265335083008 187.6265869140625 42.31587600708008 192.0021667480469 47.95540237426758 195.8121948242188 C 53.64873504638672 199.6585235595703 59.73512649536133 202.9621429443359 66.04551696777344 205.6312408447266 C 79.17462921142578 211.1844177246094 93.12179565429688 214.0001068115234 107.4995956420898 214.0001068115234 M 107.4995956420898 215.0001068115234 C 92.98723602294922 215.0001068115234 78.90898895263672 212.1578369140625 65.65596008300781 206.55224609375 C 59.28609848022461 203.8580017089844 53.14245986938477 200.5233306884766 47.39559936523438 196.6408081054688 C 41.70331954956055 192.795166015625 36.35054397583008 188.3786926269531 31.48593139648438 183.5140533447266 C 26.62129211425781 178.6494140625 22.20484733581543 173.2965850830078 18.35929298400879 167.6043090820312 C 14.4767370223999 161.8573913574219 11.14204216003418 155.7136383056641 8.447875022888184 149.3438110351562 C 2.842264413833618 136.0906066894531 1.437717037333641e-05 122.0121917724609 1.437717037333641e-05 107.4996109008789 C 1.437717037333641e-05 92.98727416992188 2.842264413833618 78.90902709960938 8.447875022888184 65.65594482421875 C 11.14204216003418 59.28622055053711 14.47670841217041 53.14255523681641 18.35929298400879 47.39561080932617 C 22.20487594604492 41.7033576965332 26.6213207244873 36.35058212280273 31.48593139648438 31.48594284057617 C 36.35054397583008 26.62135887145996 41.70331954956055 22.20488739013672 47.39559936523438 18.35930252075195 C 53.14237594604492 14.47683143615723 59.28604125976562 11.1421365737915 65.65596008300781 8.447858810424805 C 78.90898895263672 2.842275619506836 92.98723602294922 -2.149793772332487e-06 107.4995956420898 -2.149793772332487e-06 C 118.7741241455078 -2.149793772332487e-06 129.8796844482422 1.7369145154953 140.5077056884766 5.162525653839111 C 138.6969604492188 5.055608749389648 136.8440399169922 5.000386714935303 135.0000152587891 5.000386714935303 C 83.71979522705078 5.000386714935303 42.00029373168945 47.16844177246094 42.00029373168945 99 C 42.00029373168945 150.8315582275391 83.71979522705078 192.9996032714844 135.0000152587891 192.9996032714844 C 156.1881866455078 192.9996032714844 176.9176330566406 185.6069946289062 193.3697662353516 172.1835784912109 C 188.4727020263672 178.674560546875 182.8332672119141 184.6163635253906 176.609375 189.8454132080078 C 170.3511810302734 195.1033020019531 163.4962921142578 199.64501953125 156.2350921630859 203.3444976806641 C 148.8428497314453 207.1107788085938 141.0121765136719 210.0119171142578 132.9606475830078 211.9672698974609 C 124.6740417480469 213.9797210693359 116.1077117919922 215.0001068115234 107.4995956420898 215.0001068115234 Z" stroke="none" fill="#3292d2"/>
        </g>
        <g id="Subtraction_4" data-name="Subtraction 4" transform="translate(38.44 0)" fill="url(#linear-gradient-2)">
          <path d="M 107.571662902832 214.5061492919922 C 105.6909942626953 214.5061492919922 103.7839965820312 214.4562683105469 101.9036026000977 214.3578796386719 C 87.47799682617188 213.6017303466797 73.63254547119141 210.043212890625 60.75193786621094 203.7812042236328 C 54.55929946899414 200.7704772949219 48.62638092041016 197.1356811523438 43.11801910400391 192.9777679443359 C 37.65802001953125 188.8568115234375 32.56735610961914 184.1880950927734 27.9874095916748 179.101318359375 C 23.40324401855469 174.0089569091797 19.29210472106934 168.4580078125 15.76818752288818 162.6027069091797 C 12.20832633972168 156.6872100830078 9.213993072509766 150.4067840576172 6.868381977081299 143.9359588623047 C 1.986493229866028 130.4718170166016 -0.1054234653711319 116.3301239013672 0.6506876349449158 101.9036483764648 C 1.406715393066406 87.47995758056641 4.965243339538574 73.63448333740234 11.22741031646729 60.75184631347656 C 14.23821544647217 54.55906677246094 17.87299346923828 48.62617874145508 22.03077125549316 43.11798477172852 C 26.15174293518066 37.65803909301758 30.82046508789062 32.56734466552734 35.90727233886719 27.98734474182129 C 40.99968719482422 23.40315055847168 46.55060577392578 19.29201126098633 52.40582656860352 15.76815032958984 C 58.32074356079102 12.20862293243408 64.60088348388672 9.214289665222168 71.07171630859375 6.868317127227783 C 81.88314056396484 2.948510885238647 93.17316436767578 0.8211272358894348 104.6712112426758 0.5336737036705017 C 98.44880676269531 1.543552994728088 92.31729888916016 3.131860256195068 86.36554718017578 5.27903938293457 C 80.17129516601562 7.513455867767334 74.15943908691406 10.36678886413574 68.49691009521484 13.75976181030273 C 62.88879776000977 17.11953926086426 57.57568740844727 21.03717803955078 52.70521545410156 25.40387344360352 C 47.83357620239258 29.77081680297852 43.36479949951172 34.62237167358398 39.42307662963867 39.82376098632812 C 35.44179916381836 45.07698440551758 31.96335411071777 50.73215103149414 29.08435440063477 56.63209533691406 C 23.09124374389648 68.910400390625 19.68696594238281 82.10856628417969 18.96610450744629 95.8599853515625 C 18.24524307250977 109.6107025146484 20.25127029418945 123.0925369262695 24.92838287353516 135.9308929443359 C 27.17621612548828 142.1017913818359 30.04457664489746 148.0895080566406 33.45374298095703 153.727783203125 C 36.82996368408203 159.3120727539062 40.76682662963867 164.6042022705078 45.15496444702148 169.4571990966797 C 49.54218673706055 174.3083801269531 54.41679763793945 178.7600402832031 59.64340972900391 182.6885681152344 C 64.92176818847656 186.6550445556641 70.60254669189453 190.1211853027344 76.52799224853516 192.9907684326172 C 88.86305236816406 198.9629516601562 102.1192169189453 202.3579254150391 115.9282455444336 203.0813751220703 C 117.7449340820312 203.1762084960938 119.5808258056641 203.2242889404297 121.3849639892578 203.2242889404297 C 127.7465515136719 203.2242889404297 134.1130523681641 202.6367034912109 140.3076324462891 201.4778442382812 C 148.0649719238281 200.0274810791016 155.6611022949219 197.6692047119141 162.8849639892578 194.468505859375 C 169.9788513183594 191.3245086669922 176.7276000976562 187.3630065917969 182.9437713623047 182.6940460205078 C 183.8654174804688 182.0017242431641 184.7814483642578 181.2888641357422 185.6858978271484 180.5602264404297 C 181.4607238769531 185.0761566162109 176.8434753417969 189.2308197021484 171.9077911376953 192.9543151855469 C 165.4148864746094 197.8537902832031 158.3646087646484 202.01123046875 150.9527130126953 205.3112640380859 C 143.4075469970703 208.6703491210938 135.4732971191406 211.1459350585938 127.3703231811523 212.6692657470703 C 120.8884124755859 213.8881225585938 114.2271881103516 214.5061492919922 107.571662902832 214.5061492919922 Z" stroke="none"/>
          <path d="M 107.571662902832 214.0061492919922 C 114.1962738037109 214.0061492919922 120.8264083862305 213.3910369873047 127.277961730957 212.1778717041016 C 135.3427429199219 210.6617279052734 143.2396850585938 208.1977844238281 150.7493286132812 204.8544769287109 C 158.1265716552734 201.5699005126953 165.1439666748047 197.4318237304688 171.6066589355469 192.55517578125 C 174.6545715332031 190.2558288574219 177.5802917480469 187.7914581298828 180.3666381835938 185.1784210205078 C 174.9332427978516 188.9737396240234 169.13525390625 192.2452850341797 163.0874938964844 194.9256439208984 C 155.8282470703125 198.1420135498047 148.1949157714844 200.5118408203125 140.3995819091797 201.9693145751953 C 134.1747436523438 203.1338500976562 127.7772979736328 203.7242889404297 121.3849639892578 203.7242889404297 C 119.5721588134766 203.7242889404297 117.7275238037109 203.6759796142578 115.9021072387695 203.5807037353516 C 102.0261306762695 202.8537292480469 88.70546722412109 199.4421844482422 76.31005096435547 193.4407958984375 C 70.35562896728516 190.5571746826172 64.64713287353516 187.0740966796875 59.34299468994141 183.0882263183594 C 54.09096527099609 179.140625 49.19266128540039 174.6673126220703 44.78407669067383 169.7925720214844 C 40.37460327148438 164.9159545898438 36.41857528686523 159.5980072021484 33.02588272094727 153.9864807128906 C 29.59996604919434 148.3205413818359 26.71749305725098 142.3033142089844 24.45860481262207 136.1020660400391 C 19.75835418701172 123.2002029418945 17.74241065979004 109.6520080566406 18.46677017211914 95.83378601074219 C 19.19118690490723 82.01495361328125 22.6122989654541 68.75179290771484 28.6349925994873 56.41281890869141 C 31.5281867980957 50.48376083374023 35.02376937866211 44.80078887939453 39.02457809448242 39.52178955078125 C 42.98554992675781 34.29498291015625 47.47610473632812 29.41976165771484 52.37143707275391 25.03159523010254 C 57.26560592651367 20.64367866516113 62.60454940795898 16.70695495605469 68.23990631103516 13.33084487915039 C 73.93007659912109 9.921344757080078 79.97132873535156 7.054067134857178 86.19585418701172 4.808705806732178 C 89.88675689697266 3.477167129516602 93.64702606201172 2.359365701675415 97.4544677734375 1.460208296775818 C 88.50904846191406 2.29488205909729 79.72714233398438 4.262035369873047 71.24213409423828 7.338372707366943 C 64.8016357421875 9.673344612121582 58.55091094970703 12.65367794036865 52.66363143920898 16.19656753540039 C 46.83568954467773 19.70401191711426 41.31057739257812 23.79603958129883 36.24182510375977 28.35892868041992 C 31.17868804931641 32.91765213012695 26.53166007995605 37.98464965820312 22.4298267364502 43.41923522949219 C 18.2915210723877 48.9016227722168 14.67377090454102 54.80673217773438 11.67707633972168 60.97042846679688 C 5.44435453414917 73.79256439208984 1.902521014213562 87.57328796386719 1.150020956993103 101.929817199707 C 0.3974098861217499 116.2890930175781 2.479493141174316 130.3646545410156 7.338437557220459 143.7655639648438 C 9.673048973083496 150.2060394287109 12.65338230133057 156.4570465087891 16.19660377502441 162.3448944091797 C 19.70410346984863 168.1729278564453 23.79613304138184 173.6980743408203 28.35899353027344 178.7667541503906 C 32.91763305664062 183.8298950195312 37.9846305847168 188.4768981933594 43.41926956176758 192.5787048339844 C 48.90185546875 196.7171478271484 54.80696487426758 200.3349304199219 60.97055053710938 203.3315124511719 C 73.79065704345703 209.5641174316406 87.57135772705078 213.1059265136719 101.9297180175781 213.8585357666016 C 103.8014373779297 213.9564819335938 105.6996612548828 214.0061492919922 107.571662902832 214.0061492919922 M 107.571662902832 215.0061492919922 C 105.6819686889648 215.0061492919922 103.7661895751953 214.9560089111328 101.8774642944336 214.857177734375 C 87.38457489013672 214.0975189208984 73.47441101074219 210.5222930908203 60.5333251953125 204.2308654785156 C 54.31157684326172 201.2060089111328 48.35088348388672 197.5541839599609 42.81679916381836 193.3768463134766 C 37.33146667480469 189.2367553710938 32.21713256835938 184.5463714599609 27.61582565307617 179.4358673095703 C 23.01029968261719 174.3197631835938 18.88004875183105 168.7429809570312 15.33979892730713 162.8605346679688 C 11.76329898834229 156.9174041748047 8.754938125610352 150.6075897216797 6.398298740386963 144.1063385009766 C 1.49349319934845 130.5789489746094 -0.6082568168640137 116.37109375 0.1513820886611938 101.8774871826172 C 0.9109376668930054 87.38653564453125 4.486159801483154 73.47637176513672 10.7777156829834 60.53326034545898 C 13.80263233184814 54.31148529052734 17.45443725585938 48.35076141357422 21.63168716430664 42.8167610168457 C 25.77182579040527 37.33142852783203 30.46227073669434 32.21706771850586 35.57271575927734 27.61576080322266 C 40.6888542175293 23.01020622253418 46.26557540893555 18.87998390197754 52.14799499511719 15.33976173400879 C 58.090576171875 11.76359462738037 64.40010070800781 8.755233764648438 70.90129852294922 6.398261547088623 C 82.61124420166016 2.1526780128479 94.87998962402344 1.146104568761075e-05 107.3667678833008 1.146104568761075e-05 C 108.9520492553711 1.146104568761075e-05 110.5626907348633 0.03515034914016724 112.1538848876953 0.1045392379164696 C 103.4281005859375 0.8660392165184021 94.80874633789062 2.764566898345947 86.53521728515625 5.749372482299805 C 80.37126922607422 7.972872734069824 74.38877105712891 10.8122615814209 68.75390625 14.18865013122559 C 63.17288208007812 17.53220558166504 57.88565826416016 21.43081665039062 53.03899383544922 25.77614974975586 C 48.19104766845703 30.12184524536133 43.74407577514648 34.94973373413086 39.82157516479492 40.12576293945312 C 35.85988235473633 45.3531494140625 32.39852142333984 50.98048400878906 29.53371620178223 56.85137176513672 C 23.57018852233887 69.06906890869141 20.18274307250977 82.20228576660156 19.46541023254395 95.88614654541016 C 18.74810409545898 109.5694580078125 20.74418830871582 122.9848709106445 25.3981876373291 135.759765625 C 27.63496589660645 141.9002838134766 30.48921585083008 147.8585662841797 33.8816032409668 153.4690704345703 C 37.24140930175781 159.0261840820312 41.15910339355469 164.2925415039062 45.52582550048828 169.1218719482422 C 49.89168930053711 173.9494018554688 54.74260330200195 178.3794250488281 59.94382476806641 182.2888793945312 C 65.19638061523438 186.2359619140625 70.84943389892578 189.6852111816406 76.74591064453125 192.5407562255859 C 89.02069091796875 198.4837646484375 102.2123565673828 201.8621215820312 115.9544067382812 202.5820617675781 C 117.7621612548828 202.6764221191406 119.5892715454102 202.7242889404297 121.3849639892578 202.7242889404297 C 127.7158279418945 202.7242889404297 134.0513610839844 202.1395721435547 140.2156829833984 200.9863739013672 C 147.9351348876953 199.5430908203125 155.4940185546875 197.1963500976562 162.6824035644531 194.0113677978516 C 169.7417144775391 190.8827056884766 176.4576110839844 186.9404907226562 182.6434936523438 182.2942657470703 C 184.5768585205078 180.8419799804688 186.4848480224609 179.2991790771484 188.3145141601562 177.7086486816406 C 188.8358612060547 177.3433990478516 189.3596649169922 176.9682922363281 189.8714141845703 176.5936431884766 C 184.6406097412109 182.8200378417969 178.6976318359375 188.4583740234375 172.2089080810547 193.3534851074219 C 165.6858062744141 198.2757263183594 158.6026000976562 202.4525909423828 151.1560821533203 205.7680358886719 C 143.5755004882812 209.1428985595703 135.6038818359375 211.6301574707031 127.4627151489258 213.16064453125 C 120.950439453125 214.3852386474609 114.2581024169922 215.0061492919922 107.571662902832 215.0061492919922 Z M 145.8148040771484 7.03367805480957 C 144.0027160644531 6.831178188323975 142.1576538085938 6.680122375488281 140.3308868408203 6.584539413452148 C 139.2456817626953 6.527705669403076 138.1437225341797 6.489372730255127 137.0555267333984 6.470594882965088 C 138.9853210449219 6.23359489440918 140.9368896484375 6.060372352600098 142.8558197021484 5.953816890716553 C 143.8437652587891 6.297205924987793 144.83935546875 6.659844875335693 145.8152770996094 7.031705856323242 L 145.8148040771484 7.03367805480957 Z" stroke="none" fill="#3292d2"/>
        </g>
        <path id="Path_3" data-name="Path 3" d="M666.357,280.455c3.544-4.283,3.692-4.431,3.692-4.431l1.92-7.68.738-3.84-2.658-2.068s4.874-6.5,6.941-5.76,6.351.591,7.68,2.068,5.612,5.76,5.612,5.76,5.317-.148,6.646,0,5.76,3.84,3.544,6.5-10.338,7.384-9.156,8.418-1.034,7.975-1.034,7.975-4.431,9.156-7.827,8.27-6.646-6.646-6.646-6.646S662.812,284.738,666.357,280.455Z" transform="translate(-492.578 -200.591)" fill="#72cbeb"/>
        <g data-type="innerShadowGroup">
          <path id="Path_4-2" data-name="Path 4" d="M506.143,329.626s54.156,33.214,103.343,21.1,48.964-11.981,52.11-13.38,39.847-7.293,39.847-25.827,44.91-21.385,44.91-21.385L726.6,307.98l3.4,3.535,47.714-14.727,11.677-4.774.761.935s-43.6,38.6-67.724,52.312-82.252,26.869-128.313,22.482-86.672-36.693-86.672-36.693Z" transform="translate(-506.143 -194.994)" fill="url(#linear-gradient-3)"/>
          <g transform="matrix(1, 0, 0, 1, -5.97, -19.21)" filter="url(#Path_4)">
            <path id="Path_4-3" data-name="Path 4" d="M506.143,329.626s54.156,33.214,103.343,21.1,48.964-11.981,52.11-13.38,39.847-7.293,39.847-25.827,44.91-21.385,44.91-21.385L726.6,307.98l3.4,3.535,47.714-14.727,11.677-4.774.761.935s-43.6,38.6-67.724,52.312-82.252,26.869-128.313,22.482-86.672-36.693-86.672-36.693Z" transform="translate(-500.17 -175.78)" fill="#fff"/>
          </g>
        </g>
        <g data-type="innerShadowGroup">
          <path id="Path_5-2" data-name="Path 5" d="M648.342,368.663s-53.6,5.591-4.416-6.528,39.81-9.846,42.956-11.244c3.932.437,38.308-22.265,49.1-28,.625-.335,52.958-29.878,53.408-29.941,5.695-.8-39.252,28.167-39.252,28.167h0l27.575-24.328h0l11.677-4.774,1.5,2.56s-45.493,37.31-65.959,49.79-74.258,30.472-120.381,26.155,43.787-1.855,43.787-1.855Z" transform="translate(-506.143 -196.878)" fill="#aa1867"/>
          <g transform="matrix(1, 0, 0, 1, -5.97, -19.21)" filter="url(#Path_5)">
            <path id="Path_5-3" data-name="Path 5" d="M648.342,368.663s-53.6,5.591-4.416-6.528,39.81-9.846,42.956-11.244c3.932.437,38.308-22.265,49.1-28,.625-.335,52.958-29.878,53.408-29.941,5.695-.8-39.252,28.167-39.252,28.167h0l27.575-24.328h0l11.677-4.774,1.5,2.56s-45.493,37.31-65.959,49.79-74.258,30.472-120.381,26.155,43.787-1.855,43.787-1.855Z" transform="translate(-500.17 -177.66)" fill="#fff"/>
          </g>
        </g>
      </g>
      <text id="Dream_sparks_foundation" data-name="Dream sparks foundation" transform="translate(439 316.78)" fill="#3292d2" font-size="60" font-family="Poppins-Bold, Poppins" font-weight="700"><tspan x="0" y="0">DREAM SPARKS FOUNDATION</tspan></text>
    </g>
    <path id="Intersection_1" data-name="Intersection 1" d="M653.135-179.755a15.446,15.446,0,0,1-5.85-5.738,16.047,16.047,0,0,1-2.16-8.3,15.964,15.964,0,0,1,2.16-8.257,15.459,15.459,0,0,1,5.85-5.738,16.275,16.275,0,0,1,8.1-2.07,16.241,16.241,0,0,1,8.122,2.07,15.353,15.353,0,0,1,5.8,5.738A16.1,16.1,0,0,1,677.3-193.8a16.181,16.181,0,0,1-2.138,8.3,15.292,15.292,0,0,1-5.828,5.738,16.271,16.271,0,0,1-8.1,2.07A16.266,16.266,0,0,1,653.135-179.755Zm3.082-23.175a8.63,8.63,0,0,0-3.4,3.622,11.9,11.9,0,0,0-1.215,5.512,12.031,12.031,0,0,0,1.215,5.535,8.742,8.742,0,0,0,3.4,3.668,9.716,9.716,0,0,0,5.018,1.282,9.6,9.6,0,0,0,4.995-1.282,8.79,8.79,0,0,0,3.375-3.668,12.031,12.031,0,0,0,1.215-5.535,11.9,11.9,0,0,0-1.215-5.512,8.676,8.676,0,0,0-3.375-3.622,9.734,9.734,0,0,0-4.995-1.26A9.855,9.855,0,0,0,656.218-202.93ZM500.99-179.755a15.446,15.446,0,0,1-5.85-5.738,16.047,16.047,0,0,1-2.16-8.3,15.965,15.965,0,0,1,2.16-8.257,15.459,15.459,0,0,1,5.85-5.738,16.275,16.275,0,0,1,8.1-2.07,16.241,16.241,0,0,1,8.122,2.07,15.353,15.353,0,0,1,5.8,5.738,16.1,16.1,0,0,1,2.138,8.257,16.181,16.181,0,0,1-2.138,8.3,15.292,15.292,0,0,1-5.827,5.738,16.271,16.271,0,0,1-8.1,2.07A16.266,16.266,0,0,1,500.99-179.755Zm3.082-23.175a8.63,8.63,0,0,0-3.4,3.622,11.9,11.9,0,0,0-1.215,5.512,12.031,12.031,0,0,0,1.215,5.535,8.742,8.742,0,0,0,3.4,3.668,9.716,9.716,0,0,0,5.018,1.282,9.6,9.6,0,0,0,4.995-1.282,8.79,8.79,0,0,0,3.375-3.668,12.031,12.031,0,0,0,1.215-5.535,11.9,11.9,0,0,0-1.215-5.512,8.676,8.676,0,0,0-3.375-3.622,9.734,9.734,0,0,0-4.995-1.26A9.855,9.855,0,0,0,504.073-202.93ZM385.79-179.755a15.446,15.446,0,0,1-5.85-5.738,16.047,16.047,0,0,1-2.16-8.3,15.965,15.965,0,0,1,2.16-8.257,15.459,15.459,0,0,1,5.85-5.738,16.276,16.276,0,0,1,8.1-2.07,16.241,16.241,0,0,1,8.122,2.07,15.353,15.353,0,0,1,5.8,5.738,16.1,16.1,0,0,1,2.138,8.257,16.181,16.181,0,0,1-2.138,8.3,15.292,15.292,0,0,1-5.827,5.738,16.271,16.271,0,0,1-8.1,2.07A16.266,16.266,0,0,1,385.79-179.755Zm3.082-23.175a8.63,8.63,0,0,0-3.4,3.622,11.9,11.9,0,0,0-1.215,5.512,12.031,12.031,0,0,0,1.215,5.535,8.742,8.742,0,0,0,3.4,3.668,9.716,9.716,0,0,0,5.018,1.282,9.6,9.6,0,0,0,4.995-1.282,8.79,8.79,0,0,0,3.375-3.668,12.031,12.031,0,0,0,1.215-5.535,11.9,11.9,0,0,0-1.215-5.512,8.676,8.676,0,0,0-3.375-3.622,9.734,9.734,0,0,0-4.995-1.26A9.855,9.855,0,0,0,388.873-202.93ZM226.31-179.755a15.446,15.446,0,0,1-5.85-5.738,16.047,16.047,0,0,1-2.16-8.3,15.965,15.965,0,0,1,2.16-8.257,15.459,15.459,0,0,1,5.85-5.738,16.276,16.276,0,0,1,8.1-2.07,16.241,16.241,0,0,1,8.123,2.07,15.353,15.353,0,0,1,5.8,5.738,16.1,16.1,0,0,1,2.137,8.257,16.181,16.181,0,0,1-2.137,8.3,15.292,15.292,0,0,1-5.827,5.738,16.271,16.271,0,0,1-8.1,2.07A16.266,16.266,0,0,1,226.31-179.755Zm3.082-23.175a8.63,8.63,0,0,0-3.4,3.622,11.9,11.9,0,0,0-1.215,5.512A12.031,12.031,0,0,0,226-188.26a8.742,8.742,0,0,0,3.4,3.668,9.716,9.716,0,0,0,5.018,1.282,9.6,9.6,0,0,0,5-1.282,8.79,8.79,0,0,0,3.375-3.668A12.031,12.031,0,0,0,244-193.8a11.9,11.9,0,0,0-1.215-5.512,8.676,8.676,0,0,0-3.375-3.622,9.734,9.734,0,0,0-5-1.26A9.855,9.855,0,0,0,229.393-202.93Zm-66.96,24.12a9.709,9.709,0,0,1-4.163-3.24,8.522,8.522,0,0,1-1.575-5h6.75a4.362,4.362,0,0,0,1.372,3.06,4.859,4.859,0,0,0,3.4,1.125,5.225,5.225,0,0,0,3.465-1.058,3.439,3.439,0,0,0,1.26-2.768,3.2,3.2,0,0,0-.855-2.295,6.012,6.012,0,0,0-2.137-1.417,35.584,35.584,0,0,0-3.533-1.148,37.7,37.7,0,0,1-4.973-1.777,8.7,8.7,0,0,1-3.285-2.655,7.563,7.563,0,0,1-1.372-4.747,8.486,8.486,0,0,1,1.4-4.86,8.874,8.874,0,0,1,3.915-3.173,14.252,14.252,0,0,1,5.76-1.1,12.5,12.5,0,0,1,7.9,2.362,8.761,8.761,0,0,1,3.353,6.592h-6.93a3.6,3.6,0,0,0-1.372-2.677,5.174,5.174,0,0,0-3.4-1.057,4.373,4.373,0,0,0-2.948.945,3.416,3.416,0,0,0-1.1,2.745,2.834,2.834,0,0,0,.832,2.092,6.329,6.329,0,0,0,2.07,1.35q1.237.518,3.488,1.193a36.818,36.818,0,0,1,4.995,1.8,8.983,8.983,0,0,1,3.33,2.7,7.5,7.5,0,0,1,1.4,4.725,8.893,8.893,0,0,1-1.305,4.68,9.218,9.218,0,0,1-3.825,3.443,13.049,13.049,0,0,1-5.985,1.282A14.906,14.906,0,0,1,162.433-178.81Zm-229.005-.967a14.891,14.891,0,0,1-5.76-5.692,16.328,16.328,0,0,1-2.092-8.28,16.455,16.455,0,0,1,2.092-8.3,14.857,14.857,0,0,1,5.76-5.715,16.47,16.47,0,0,1,8.168-2.048,16.35,16.35,0,0,1,9.225,2.587,13.216,13.216,0,0,1,5.4,7.268h-7.245a7.38,7.38,0,0,0-2.97-3.015,9.047,9.047,0,0,0-4.41-1.035,9.643,9.643,0,0,0-4.95,1.26,8.708,8.708,0,0,0-3.375,3.6,11.557,11.557,0,0,0-1.215,5.4,11.575,11.575,0,0,0,1.238,5.49,8.748,8.748,0,0,0,3.442,3.6,10.152,10.152,0,0,0,5.13,1.26,8.9,8.9,0,0,0,5.9-1.912,9.127,9.127,0,0,0,3.015-5.333h-10.8v-4.815h17.01v5.49a14.757,14.757,0,0,1-2.7,6.075,15.252,15.252,0,0,1-5.333,4.477,15.68,15.68,0,0,1-7.312,1.688A16.551,16.551,0,0,1-66.572-179.778ZM699.575-209.41h6.75l5.535,24.39,6.39-24.39h7.02l6.03,24.255,5.58-24.255h6.795L734.9-178h-7.425l-5.895-22.365L715.415-178l-7.38.045ZM614.3-178l-6.93-12.24H604.4V-178h-6.3v-31.41h11.79a13.767,13.767,0,0,1,6.21,1.283,8.963,8.963,0,0,1,3.848,3.465,9.458,9.458,0,0,1,1.282,4.882,9.354,9.354,0,0,1-1.8,5.6,9.25,9.25,0,0,1-5.355,3.443L621.59-178Zm-9.9-16.965h5.265a5.26,5.26,0,0,0,3.825-1.237,4.6,4.6,0,0,0,1.26-3.443A4.4,4.4,0,0,0,613.49-203a5.39,5.39,0,0,0-3.825-1.192H604.4ZM565.745-178l-6.93-12.24h-2.97V-178h-6.3v-31.41h11.79a13.767,13.767,0,0,1,6.21,1.283,8.963,8.963,0,0,1,3.848,3.465,9.458,9.458,0,0,1,1.282,4.882,9.354,9.354,0,0,1-1.8,5.6,9.25,9.25,0,0,1-5.355,3.443L573.035-178Zm-9.9-16.965h5.265a5.26,5.26,0,0,0,3.825-1.237,4.6,4.6,0,0,0,1.26-3.443,4.4,4.4,0,0,0-1.26-3.353,5.39,5.39,0,0,0-3.825-1.192h-5.265ZM462.29-178v-20.43L453.875-178h-4.77l-8.46-20.43V-178h-6.3v-31.41H441.5l9.99,23.355,9.99-23.355h7.11V-178Zm-121.95,0v-26.325h-8.37v-5.085h23.04v5.085h-8.37V-178Zm-65.475,0v-31.41H294.26v5.085h-13.1v8.055H291.2v4.995H281.165V-178ZM125.15-178l-6.93-12.24h-2.97V-178h-6.3v-31.41h11.79a13.767,13.767,0,0,1,6.21,1.283,8.963,8.963,0,0,1,3.847,3.465,9.457,9.457,0,0,1,1.283,4.882,9.354,9.354,0,0,1-1.8,5.6,9.25,9.25,0,0,1-5.355,3.443L132.44-178Zm-9.9-16.965h5.265a5.26,5.26,0,0,0,3.825-1.237,4.6,4.6,0,0,0,1.26-3.443A4.4,4.4,0,0,0,124.34-203a5.39,5.39,0,0,0-3.825-1.192H115.25ZM65.3-178v-31.455H83.525v5.13H71.6v7.875H82.175v5H71.6v8.325H83.525V-178Zm-42.66,0L11.12-209.41h6.75l8.64,24.975,8.595-24.975H41.81L30.29-178Zm-41.265,0v-31.41h6.3V-178ZM-43.78-199.96Z" transform="translate(402 373)" fill="#3292d2" stroke="rgba(0,0,0,0)" stroke-miterlimit="10" stroke-width="1"/>
  </g>
</svg>
